<svg xmlns="http://www.w3.org/2000/svg" viewBox="212 589 2328 369"><path fill="#FFFFFF" fill-rule="evenodd" d="M285.4 914.3L211.6 865.0L211.7 587.7L395.2 710.6L346.4 745.0L346.2 766.5L285.4 725.0L285.4 914.3ZM656.2 827.7L683.6 722.3L726.8 722.4L746.6 767.1L791.3 722.4L836.2 722.4L809.3 828.0L772.0 828.0L770.7 827.0L786.5 769.3L745.0 811.5L730.0 811.5L727.6 809.0L709.5 769.1L694.6 827.8L656.2 827.7ZM973.5 734.1L976.4 741.8L976.2 751.4L963.9 801.9L957.7 814.0L947.9 822.1L936.3 826.4L924.2 828.2L858.7 828.2L843.8 824.7L834.9 816.9L831.7 807.2L831.9 797.9L843.1 751.9L848.9 739.4L858.1 730.6L868.0 725.5L881.0 722.2L949.7 722.2L961.4 724.9L968.2 728.5L973.5 734.1ZM1126.6 722.5L1099.0 828.0L1056.5 828.0L1024.6 768.5L1009.9 828.0L971.2 828.0L998.7 722.5L1041.4 722.4L1072.8 781.1L1088.8 722.4L1126.6 722.5ZM1291.6 722.1L1283.8 752.6L1219.1 752.7L1213.0 753.7L1208.2 756.8L1205.6 760.8L1198.6 788.9L1198.6 794.2L1202.4 797.2L1273.4 797.1L1265.7 827.5L1182.2 827.5L1169.1 823.7L1161.1 817.6L1157.6 810.0C1157.0 807.9 1157.0 807.8 1157.0 805.0L1158.0 792.9L1169.3 749.9L1175.4 738.3L1182.0 731.6L1191.4 726.3L1206.2 722.2L1291.6 722.1ZM1376.1 827.4L1278.1 827.4L1305.8 722.2L1343.9 722.3L1324.1 797.4L1383.5 797.4L1376.1 827.4ZM1534.6 722.2L1513.3 804.7L1509.3 812.3L1502.1 819.4L1492.0 824.5L1479.0 827.4L1423.7 827.4L1409.0 824.9L1400.1 820.5L1395.6 815.7L1392.3 807.9L1392.7 794.8L1411.6 722.2L1450.1 722.3L1432.7 790.3L1434.8 796.3L1439.1 797.6L1469.0 797.6C1474.7 797.3 1471.6 797.2 1473.0 796.2L1477.4 791.8L1495.2 722.2L1534.6 722.2ZM1521.4 827.5L1549.0 722.2L1634.2 722.2L1647.2 725.6L1655.5 732.2L1658.1 741.9L1655.4 753.9L1649.1 763.4L1639.2 770.0L1648.7 775.9L1652.3 781.9L1653.6 788.3L1652.5 798.0L1648.6 808.7L1640.6 818.2L1628.3 824.5L1613.4 827.5L1521.4 827.5ZM1574.9 761.7L1611.2 761.7L1615.7 759.0L1617.6 753.0L1614.1 749.4L1578.4 749.2L1574.9 761.7ZM934.3 756.0L932.0 753.7C930.9 753.1 935.1 752.9 928.0 752.7L889.5 752.7L883.5 754.9L879.8 759.8L873.0 787.0L872.4 792.0L873.9 796.0L878.0 798.3C879.3 798.7 875.4 798.4 882.0 798.4L917.9 798.4L923.1 796.4L926.1 793.0L928.4 787.0L934.6 761.8L934.3 756.0ZM1565.1 800.3L1607.7 800.0L1611.8 796.1L1612.8 788.7L1607.9 785.7L1570.0 785.7L1568.5 787.0L1565.1 800.3ZM600.7 588.4L600.6 701.7L531.0 751.2L528.0 725.4L435.1 791.9L435.1 954.0L432.0 955.1L361.0 906.9L361.4 753.0L600.7 588.4ZM600.9 776.9L600.4 865.6L453.6 958.6L453.7 872.1L600.9 776.9ZM1832.0 722.1L1831.3 729.0L1825.3 752.3L1755.1 752.3L1748.1 754.2L1743.5 758.4L1741.3 765.0L1735.2 789.9L1736.5 795.0L1739.0 796.9L1813.7 797.4L1805.6 827.4L1718.8 827.4L1704.4 823.6L1697.5 817.8L1693.5 807.2L1694.4 796.6L1705.9 750.9L1711.6 739.3L1718.3 731.4L1730.1 725.2L1748.3 722.0L1832.0 722.1ZM1830.7 816.8L1827.5 809.8L1827.5 798.3L1840.1 749.2L1847.5 736.2L1858.0 728.1L1869.4 723.8L1881.5 722.2L1948.1 722.3L1960.9 725.2L1968.8 730.5L1973.2 737.2L1974.2 744.7L1973.2 753.6L1960.5 802.4L1955.0 812.8L1945.7 820.8L1935.5 825.0L1923.8 827.4L1853.1 827.4L1838.1 823.5L1830.7 816.8ZM2149.6 722.2L2146.4 737.2L2122.0 827.4L2087.0 827.4L2084.0 826.2L2099.7 769.0L2057.7 811.5L2048.8 811.8L2038.8 811.4L2021.7 768.7L2005.6 827.5L1968.3 827.5L1996.7 722.5L2039.1 722.5L2058.5 768.3L2104.5 722.3L2149.6 722.2ZM2138.5 827.4L2166.3 725.0L2167.9 722.3L2257.3 722.2L2272.1 725.3L2279.4 731.9L2281.9 741.9L2279.4 752.9L2273.3 761.9L2262.2 769.7L2270.5 774.0L2275.1 780.6L2276.2 788.2L2275.2 798.9L2270.7 809.7L2261.6 819.1L2248.8 824.8L2235.7 827.4L2138.5 827.4ZM2270.4 827.4L2351.0 723.4L2355.0 722.3L2400.3 722.3L2425.9 827.4L2382.6 827.4L2368.6 760.0L2367.0 757.4L2314.4 827.4L2270.4 827.4ZM2539.4 722.3L2537.0 733.9L2532.0 751.7L2503.0 751.8L2500.4 753.0L2480.4 827.5L2442.6 827.5L2463.5 753.0L2462.0 751.8L2428.6 751.7L2437.4 722.2L2539.4 722.3ZM2194.6 761.6L2234.2 761.7L2239.1 758.1L2239.7 752.0L2237.0 749.4L2233.0 748.8L2198.2 748.6L2194.6 761.6ZM1869.6 794.9L1873.0 797.6C1874.2 798.1 1870.2 797.9 1877.0 798.0L1913.6 798.0L1919.4 796.8L1924.3 790.5L1931.9 761.0L1931.2 754.8L1927.2 752.3L1921.4 752.0L1886.9 752.0L1881.0 754.3L1877.5 758.1L1875.7 763.8L1869.1 789.0L1869.6 794.9ZM2184.4 799.0L2187.0 800.0L2229.2 799.8L2233.9 796.3L2234.6 789.0L2233.0 786.8L2229.0 785.4L2187.7 785.3L2184.4 799.0ZM2328.4 827.4L2350.6 797.9L2361.8 797.8L2369.5 827.3L2328.4 827.4Z"/></svg>