<svg xmlns="http://www.w3.org/2000/svg" viewBox="200 0 452 300">
<rect x="200" y="0" width="452" height="300" fill="#0A0A0B"/>
<path d="M297.91 9.48L292.8 16.22L201.31 294.45L201.06 298.42L297.59 218.95L317.07 155.67L362 155.51L405.5 113C405.42 112.42 405.08 110.08 405 109.5L331.39 109.49L344.8 62.69L495.57 62.41L552.73 9.53L297.91 9.48Z" fill="#FFFFFF"/><path d="M649 -0.02L560.42 40.44L579.8 46C579.73 46.5 579.47 48.5 579.41 49L512.33 109.58L456.53 109.7L385.36 186.83L387.67 195.99L395.59 207.49L419.41 220.65L543.82 221.56L551.14 226.29L552.19 235.51L549.63 244.39L543.15 251.2L535.87 253.59L350.18 253.62L292.16 297.77L543.26 297.75L566.77 291.35L585.14 279.41L601.02 259.61L607.74 238.79L607.78 213.75L597.67 194.54L581.91 183.3L560.48 177.57L452 177.31C451.33 176.92 448.64 175.38 447.97 175L446.32 169.13L448.08 160.64L457.88 153.52L525.78 153.46L614.83 67.44L628.83 83.21L651.1 5L651.55 0C651.12 -0 649.42 -0.02 649 -0.02Z" fill="#FA0117"/>
</svg>
